<?xml version="1.0" encoding="UTF-8" standalone="no"?>
<!-- Created with Inkscape (http://www.inkscape.org/) -->

<svg
   xmlns:dc="http://purl.org/dc/elements/1.1/"
   xmlns:cc="http://creativecommons.org/ns#"
   xmlns:rdf="http://www.w3.org/1999/02/22-rdf-syntax-ns#"
   xmlns:svg="http://www.w3.org/2000/svg"
   xmlns="http://www.w3.org/2000/svg"
   xmlns:sodipodi="http://sodipodi.sourceforge.net/DTD/sodipodi-0.dtd"
   xmlns:inkscape="http://www.inkscape.org/namespaces/inkscape"
   width="900"
   height="650"
   viewBox="0 0 900 650"
   version="1.1"
   id="svg8"
   inkscape:version="0.92.3 (2405546, 2018-03-11)"
   sodipodi:docname="viime.svg"
   inkscape:export-filename="D:\w\sgratzl.github.io\img\projects\viime.png"
   inkscape:export-xdpi="96"
   inkscape:export-ydpi="96">
  <defs
     id="defs2" />
  <sodipodi:namedview
     id="base"
     pagecolor="#ffffff"
     bordercolor="#666666"
     borderopacity="1.0"
     inkscape:pageopacity="1"
     inkscape:pageshadow="2"
     inkscape:zoom="0.63183595"
     inkscape:cx="-100.92637"
     inkscape:cy="280.77727"
     inkscape:document-units="px"
     inkscape:current-layer="g5084"
     showgrid="true"
     inkscape:window-width="1920"
     inkscape:window-height="1017"
     inkscape:window-x="-8"
     inkscape:window-y="-8"
     inkscape:window-maximized="1"
     units="px"
     fit-margin-top="0"
     fit-margin-left="0"
     fit-margin-right="0"
     fit-margin-bottom="0">
    <inkscape:grid
       type="xygrid"
       id="grid3713"
       empspacing="8"
       originx="256"
       originy="-333.75999" />
  </sodipodi:namedview>
  <metadata
     id="metadata5">
    <rdf:RDF>
      <cc:Work
         rdf:about="">
        <dc:format>image/svg+xml</dc:format>
        <dc:type
           rdf:resource="http://purl.org/dc/dcmitype/StillImage" />
        <dc:title></dc:title>
      </cc:Work>
    </rdf:RDF>
  </metadata>
  <g
     inkscape:label="Layer 1"
     inkscape:groupmode="layer"
     id="layer1"
     transform="translate(256,498.49338)">
    <g
       id="g5084"
       transform="matrix(1.2857143,0,0,1.2857143,245.14286,-17.26246)">
      <g
         style="clip-rule:evenodd;fill-rule:evenodd;stroke-linejoin:round;stroke-miterlimit:2"
         id="g7607"
         transform="matrix(0.87216919,0,0,0.87216919,-353.75887,-234.34037)">
        <g
           id="g7590">
          <path
             id="path7578"
             style="fill:#37474f;fill-rule:nonzero"
             d="m 618.956,257.219 c -22.476,-0.127 -39.97,-6.282 -52.48,-18.845 -12.511,-12.564 -18.766,-30.031 -18.766,-52.401 0,-22.37 4.426,-42.541 13.279,-60.512 8.853,-17.97 20.992,-31.594 36.418,-40.871 15.427,-9.277 33.265,-13.915 53.515,-13.915 20.144,0 35.994,4.559 47.55,13.677 11.556,9.118 17.335,21.257 17.335,36.418 0,21.31 -8.297,37.664 -24.889,49.061 -16.592,11.398 -40.58,17.096 -71.962,17.096 h -9.383 v 2.545 c 0,15.691 8.694,23.536 26.082,23.536 8.375,0 16.592,-1.245 24.649,-3.737 8.058,-2.491 17.229,-6.441 27.513,-11.848 0,0 7.433,60.228 -68.861,59.796 z m 25.127,-144.878 c -6.467,0 -12.51,3.685 -18.129,11.053 -5.619,7.368 -9.012,15.718 -10.178,25.048 h 4.612 c 11.556,0 20.621,-2.2 27.194,-6.6 6.573,-4.4 9.86,-10.205 9.86,-17.414 0,-3.393 -1.06,-6.256 -3.181,-8.588 -2.12,-2.332 -5.513,-3.499 -10.178,-3.499 z"
             inkscape:connector-curvature="0" />
          <path
             id="path7580"
             style="fill:#39474f;fill-rule:nonzero"
             d="M 12.434,139.444 C -1.464,112.462 1.487,78.178 26.888,52.816 c 10e-4,0 41.519,68.519 72.482,114.26 17.07,25.219 11.052,61.451 -14.436,86.898 -0.042,0.043 -0.064,0.065 -0.064,0.065 0,0 -0.707,-0.403 -56.006,-87.468 -8.193,-12.899 -14.435,-23.256 -16.43,-27.127 z"
             inkscape:connector-curvature="0" />
          <path
             id="path7582"
             style="fill:#68a042;fill-rule:nonzero"
             d="m 156.306,202.948 c -9.229,28.914 -35.541,51.091 -71.436,51.091 0,0 19.031,-77.823 29.439,-132.07 5.738,-29.907 35.597,-51.294 71.614,-51.294 h 0.091 c 0,0 0.216,0.784 -22.168,101.468 -3.316,14.917 -6.216,26.657 -7.54,30.805 z"
             inkscape:connector-curvature="0" />
          <path
             id="path7584"
             style="fill:#7cb342;fill-rule:nonzero"
             d="m 226.27,193.855 c -7.509,35.102 -38.524,60.184 -74.419,60.184 0,0 19.475,-91.674 33.051,-155.576 7.484,-35.23 38.593,-60.424 74.609,-60.424 h 0.091 c 0,0 -19.66,91.904 -33.332,155.816 z"
             inkscape:connector-curvature="0" />
          <path
             id="path7586"
             style="fill:#8bc349;fill-rule:nonzero"
             d="m 293.318,193.824 c -7.488,35.1 -38.515,60.215 -74.39,60.215 -0.001,0 -0.001,0 -0.001,0 0,0 24.871,-117.279 40.715,-191.99 7.482,-35.281 38.652,-60.542 74.703,-60.542 0,0 -25.092,117.621 -41.027,192.317 z"
             inkscape:connector-curvature="0" />
          <path
             id="path7588"
             style="fill:#39474f;fill-rule:nonzero"
             d="m 377.145,254.039 c 0,0 16.441,-78.236 20.833,-100.349 4.672,-23.523 2.108,-33.959 -6.786,-34.192 -7.207,-0.189 -16.741,-0.018 -27.186,46.914 -1.603,7.203 -4.025,18.406 -6.601,30.422 -7.258,33.389 -36.807,57.204 -70.976,57.204 0,10e-4 0,10e-4 0,10e-4 0,0 16.061,-76.136 27.302,-129.426 6.24,-29.584 32.345,-50.757 62.581,-50.757 h 1.367 l -5.828,29.739 C 378.318,91.508 385.125,83 393.182,78.07 c 8.058,-4.93 12.259,-7.395 24.452,-7.395 12.404,0 18.783,2.836 25.516,8.508 6.732,5.672 10.565,13.809 13.322,24.412 h 1.272 c 6.891,-11.239 12.056,-19.535 20.962,-24.889 8.906,-5.354 15.597,-8.031 27.366,-8.031 14.949,0 23.559,4.479 31.299,13.438 7.739,8.959 11.609,22.185 11.609,39.679 0,10.284 -1.166,21.151 -3.499,32.601 0,0 -3.841,18.868 -8.146,40.016 -6.828,33.536 -36.321,57.63 -70.544,57.63 0,0 16.294,-78.242 20.515,-100.349 6.366,-33.339 -2.243,-34.159 -7.994,-34.192 -6.153,-0.036 -17.101,1.556 -25.703,48.186 -1.248,6.765 -3.272,16.94 -5.512,27.959 -6.65,33.922 -36.383,58.392 -70.952,58.392 0,0.004 0,0.004 0,0.004 z"
             inkscape:connector-curvature="0" />
        </g>
      </g>
    </g>
  </g>
</svg>
