<?xml version="1.0" encoding="UTF-8" standalone="no"?>
<!-- Created with Inkscape (http://www.inkscape.org/) -->

<svg
   xmlns:dc="http://purl.org/dc/elements/1.1/"
   xmlns:cc="http://creativecommons.org/ns#"
   xmlns:rdf="http://www.w3.org/1999/02/22-rdf-syntax-ns#"
   xmlns:svg="http://www.w3.org/2000/svg"
   xmlns="http://www.w3.org/2000/svg"
   xmlns:sodipodi="http://sodipodi.sourceforge.net/DTD/sodipodi-0.dtd"
   xmlns:inkscape="http://www.inkscape.org/namespaces/inkscape"
   width="900"
   height="650"
   viewBox="0 0 900 650"
   version="1.1"
   id="svg8"
   inkscape:version="0.92.3 (2405546, 2018-03-11)"
   sodipodi:docname="minizinc.svg"
   inkscape:export-filename="D:\w\sgratzl.github.io\img\projects\minzinc.png"
   inkscape:export-xdpi="96"
   inkscape:export-ydpi="96">
  <defs
     id="defs2">
    <clipPath
       clipPathUnits="userSpaceOnUse"
       id="clipPath16">
      <path
         d="m 0,1024 1024,0 L 1024,0 0,0 0,1024 Z"
         id="path18" />
    </clipPath>
  </defs>
  <sodipodi:namedview
     id="base"
     pagecolor="#ffffff"
     bordercolor="#666666"
     borderopacity="1.0"
     inkscape:pageopacity="1"
     inkscape:pageshadow="2"
     inkscape:zoom="0.63183595"
     inkscape:cx="215.61149"
     inkscape:cy="125.67372"
     inkscape:document-units="px"
     inkscape:current-layer="g5084"
     showgrid="true"
     inkscape:window-width="1920"
     inkscape:window-height="1017"
     inkscape:window-x="-8"
     inkscape:window-y="-8"
     inkscape:window-maximized="1"
     units="px"
     fit-margin-top="0"
     fit-margin-left="0"
     fit-margin-right="0"
     fit-margin-bottom="0">
    <inkscape:grid
       type="xygrid"
       id="grid3713"
       empspacing="8"
       originx="256"
       originy="-333.75999" />
  </sodipodi:namedview>
  <metadata
     id="metadata5">
    <rdf:RDF>
      <cc:Work
         rdf:about="">
        <dc:format>image/svg+xml</dc:format>
        <dc:type
           rdf:resource="http://purl.org/dc/dcmitype/StillImage" />
        <dc:title></dc:title>
      </cc:Work>
    </rdf:RDF>
  </metadata>
  <g
     inkscape:label="Layer 1"
     inkscape:groupmode="layer"
     id="layer1"
     transform="translate(256,498.49338)">
    <g
       id="g5084"
       transform="matrix(1.2857143,0,0,1.2857143,245.14286,-17.26246)">
      <g
         id="g10"
         transform="matrix(0.42216209,0,0,-0.42216209,-255.97636,94.633442)">
        <g
           id="g12">
          <g
             id="g14"
             clip-path="url(#clipPath16)">
            <g
               id="g20"
               transform="translate(132.5234,968.6421)">
              <path
                 d="m 0,0 c -42.484,0 -76.924,-34.438 -76.924,-76.929 v -759.445 c 0,-42.49 34.44,-76.919 76.924,-76.919 h 759.445 c 42.49,0 76.929,34.429 76.929,76.919 V -76.929 C 836.374,-34.438 801.935,0 759.445,0 Z"
                 style="fill:#ffffff;fill-opacity:1;fill-rule:nonzero;stroke:none"
                 id="path22"
                 inkscape:connector-curvature="0" />
            </g>
            <g
               id="g24"
               transform="translate(490.0073,764.9961)">
              <path
                 d="m 0,0 h -341.772 v -101.043 h 183.631 l -195.053,-426.129 h 369.02 v 101.041 h -214.387 z"
                 style="fill:#4a4a49;fill-opacity:1;fill-rule:nonzero;stroke:none"
                 id="path26"
                 inkscape:connector-curvature="0" />
            </g>
            <g
               id="g28"
               transform="translate(543.4619,468.0146)">
              <path
                 d="M 0,0 V -230.19 H 100.161 V 7.914 c 0,0 34.265,75.558 87.865,75.558 43.933,0 49.196,-35.135 49.196,-67.646 V -230.19 H 337.387 V 63.269 c 0,74.684 -63.259,125.644 -135.299,125.644 -70.283,0 -133.558,-65.023 -133.558,-65.023 0,0 -31.624,45.688 -50.954,59.74 L -66.768,133.553 C -21.084,98.406 0,57.995 0,0"
                 style="fill:#4a4a49;fill-opacity:1;fill-rule:nonzero;stroke:none"
                 id="path30"
                 inkscape:connector-curvature="0" />
            </g>
            <g
               id="g32"
               transform="translate(975.4307,758.4355)">
              <path
                 d="m 0,0 -357.376,-0.375 c -44.462,0.319 -74.898,39.821 -74.918,73.428 l -0.081,137.209 H 0 Z"
                 style="fill:#000000;fill-opacity:1;fill-rule:nonzero;stroke:none"
                 id="path34"
                 inkscape:connector-curvature="0" />
            </g>
            <g
               id="g36"
               transform="translate(649.8535,800.1694)">
              <path
                 d="M 0,0 H 21.593 L 44.572,81.96 55.565,-2.038 79.149,1.427 56.36,122.325 H 34.777 L 10.791,34.252 -13.184,122.325 H -34.771 L -57.557,1.427 -33.973,-2.038 -22.979,81.96 Z"
                 style="fill:#ffffff;fill-opacity:1;fill-rule:nonzero;stroke:none"
                 id="path38"
                 inkscape:connector-curvature="0" />
            </g>
            <path
               d="M 766.74,893.957 H 743.551 V 800.17 h 23.189 z m 2.194,29.355 c 0,7.743 -6.196,14.067 -13.789,14.067 -7.592,0 -13.788,-6.324 -13.788,-14.067 0,-7.749 6.196,-14.069 13.788,-14.069 7.593,0 13.789,6.32 13.789,14.069"
               style="fill:#ffffff;fill-opacity:1;fill-rule:evenodd;stroke:none"
               id="path40"
               inkscape:connector-curvature="0" />
            <g
               id="g42"
               transform="translate(800.248,853.5835)">
              <path
                 d="M 0,0 V -53.414 H 22.779 V 1.837 c 0,0 7.803,17.536 19.992,17.536 9.999,0 11.194,-8.157 11.194,-15.7 v -57.087 h 22.78 v 68.093 c 0,17.333 -14.391,29.159 -30.775,29.159 -15.991,0 -30.381,-15.087 -30.381,-15.087 0,0 -7.201,10.599 -11.596,13.862 L -15.188,30.994 C -4.797,22.834 0,13.459 0,0"
                 style="fill:#ffffff;fill-opacity:1;fill-rule:nonzero;stroke:none"
                 id="path44"
                 inkscape:connector-curvature="0" />
            </g>
            <path
               d="M 925.33,893.957 H 902.147 V 800.17 h 23.183 z m 2.201,29.355 c 0,7.743 -6.194,14.067 -13.788,14.067 -7.602,0 -13.797,-6.324 -13.797,-14.067 0,-7.749 6.195,-14.069 13.797,-14.069 7.594,0 13.788,6.32 13.788,14.069"
               style="fill:#ffffff;fill-opacity:1;fill-rule:evenodd;stroke:none"
               id="path46"
               inkscape:connector-curvature="0" />
            <g
               id="g48"
               transform="translate(132.5234,968.6421)">
              <path
                 d="m 0,0 c -42.484,0 -76.924,-34.438 -76.924,-76.929 v -759.445 c 0,-42.49 34.44,-76.919 76.924,-76.919 h 759.445 c 42.49,0 76.929,34.429 76.929,76.919 V -76.929 C 836.374,-34.438 801.935,0 759.445,0 Z m 0,55.355 h 759.445 c 73.063,0 132.284,-59.225 132.284,-132.284 v -759.445 c 0,-73.063 -59.221,-132.275 -132.284,-132.275 H 0 c -73.059,0 -132.279,59.212 -132.279,132.275 v 759.445 c 0,73.059 59.22,132.284 132.279,132.284"
                 style="fill:#1491eb;fill-opacity:1;fill-rule:nonzero;stroke:none"
                 id="path50"
                 inkscape:connector-curvature="0" />
            </g>
          </g>
        </g>
      </g>
    </g>
  </g>
</svg>
